<?xml version="1.0" encoding="UTF-8"?>
<svg version="1.1" xmlns="http://www.w3.org/2000/svg" width="500" height="500">
<path d="M0 0 C0.66 0.33 1.32 0.66 2 1 C4.16621194 1.10640534 6.335754 1.14669976 8.50454712 1.15821838 C9.18004211 1.16315636 9.8555371 1.16809434 10.55150163 1.17318195 C12.82551025 1.188597 15.09949056 1.19692836 17.37353516 1.20532227 C18.99942781 1.21489765 20.62531795 1.22490752 22.25120544 1.23532104 C26.67448366 1.26241305 31.09777259 1.28339931 35.52108812 1.30332303 C40.14024857 1.32515614 44.75937583 1.35255789 49.37850952 1.37937927 C58.1297103 1.42934241 66.88092946 1.47426778 75.63216627 1.51740164 C87.45474095 1.57596327 99.27727201 1.64226955 111.09980774 1.70815182 C129.73317578 1.81178313 148.36658111 1.90503463 167 2 C167 27.74 167 53.48 167 80 C112.22 80 57.44 80 1 80 C1 56.24 1 32.48 1 8 C0.34 6.68 -0.32 5.36 -1 4 C-0.625 1.75 -0.625 1.75 0 0 Z M128 25 C128 25.66 128 26.32 128 27 C128.66 26.67 129.32 26.34 130 26 C129.34 25.67 128.68 25.34 128 25 Z M10 27 C10.33 28.65 10.66 30.3 11 32 C11.66 32 12.32 32 13 32 C13 31.01 13 30.02 13 29 C16.63 29.66 20.26 30.32 24 31 C24 32.98 24 34.96 24 37 C20.37 37.66 16.74 38.32 13 39 C13 37.35 13 35.7 13 34 C10.51955685 37.72066472 10.55618827 40.86540474 10.375 45.1875 C10.33632812 45.93708984 10.29765625 46.68667969 10.2578125 47.45898438 C10.16371784 49.30559199 10.08077681 51.1527619 10 53 C19.59422875 53.77137689 19.59422875 53.77137689 28 50 C29.24838381 46.59471004 29.24838381 46.59471004 29 43 C27.7089129 40.5787681 27.7089129 40.5787681 26 39 C26.66 38.01 27.32 37.02 28 36 C28.36467846 33.0825723 28.47575659 31.63434213 26.6875 29.25 C23.22283409 26.68358081 19.96080859 26.89289453 15.8125 26.9375 C14.72582031 26.94652344 13.63914063 26.95554688 12.51953125 26.96484375 C11.68808594 26.97644531 10.85664063 26.98804688 10 27 Z M39 27 C37.72694444 28.04871253 37.72694444 28.04871253 37.88647461 30.40844727 C37.89171143 31.45057373 37.89694824 32.4927002 37.90234375 33.56640625 C37.90556641 34.69111328 37.90878906 35.81582031 37.91210938 36.97460938 C37.92048828 38.15861328 37.92886719 39.34261719 37.9375 40.5625 C37.94201172 41.75037109 37.94652344 42.93824219 37.95117188 44.16210938 C37.96300314 47.10809412 37.98093924 50.05405316 38 53 C43.28 53 48.56 53 54 53 C54 52.01 54 51.02 54 50 C49.71 50 45.42 50 41 50 C41 42.41 41 34.82 41 27 C40.34 27 39.68 27 39 27 Z M63 31 C60.23630728 35.43894481 60.48148438 39.93006947 61 45 C62.36718346 48.56986793 63.526745 49.68082803 66.6875 51.8125 C70.66137745 53.23709757 73.83209393 53.74040647 78 53 C81.65804024 51.20548969 83.56111892 49.60877052 85.9375 46.3125 C87.34975785 41.90957847 87.31415697 38.43330062 86 34 C83.96757487 30.49077675 81.93079881 28.31026627 78 27 C71.85547107 26.28606426 67.82104782 26.76688484 63 31 Z M96 33 C94.75716219 36.72851342 94.4719274 40.12746761 95 44 C97.22136563 48.36045847 99.43567029 51.13277421 104 53 C108.71109167 53.52345463 111.00006782 53.45279948 115.3125 51.5 C118.67255047 48.37437166 119.91323805 45.40424582 121 41 C121 40.34 121 39.68 121 39 C116.38 39 111.76 39 107 39 C107 39.66 107 40.32 107 41 C110.3 41.33 113.6 41.66 117 42 C115.92598892 44.91517292 115.22189824 46.77810176 113 49 C109.27454278 50.12630102 107.06525887 50.01522707 103.25 49.125 C99.79946623 46.86888177 99.39895477 46.43568012 98.375 42.6875 C97.71742545 38.29890467 98.32622168 35.65416371 101 32 C103.03179647 30.26921042 104.28173324 29.97092037 106.9296875 30.078125 C110.08584972 30.42495601 112.98732089 30.99577363 116 32 C116.33 32.99 116.66 33.98 117 35 C117.99 34.67 118.98 34.34 120 34 C117.04237344 29.98607823 114.86789465 27.55131431 109.88671875 26.59375 C103.59251935 26.32543599 100.00798039 28.09738113 96 33 Z M140 27 C140 27.99 140 28.98 140 30 C142.64 30 145.28 30 148 30 C148.33 37.59 148.66 45.18 149 53 C149.66 53 150.32 53 151 53 C151 45.41 151 37.82 151 30 C153.97 30 156.94 30 160 30 C160 29.01 160 28.02 160 27 C153.4 27 146.8 27 140 27 Z M135 31 C135 33.64 135 36.28 135 39 C135.33 39 135.66 39 136 39 C136 36.36 136 33.72 136 31 C135.67 31 135.34 31 135 31 Z M128 33 C128 35.31 128 37.62 128 40 C128.33 40 128.66 40 129 40 C129 37.69 129 35.38 129 33 C128.67 33 128.34 33 128 33 Z M128 49 C129 52 129 52 129 52 Z M136 54 C136 56.31 136 58.62 136 61 C136.33 61 136.66 61 137 61 C137 58.69 137 56.38 137 54 C136.67 54 136.34 54 136 54 Z M129 57 C130 60 130 60 130 60 Z " fill="#000000" transform="translate(166,209)"/>
<path d="M0 0 C3.07082065 2.04721376 4.6535325 3.45793562 5.4765625 7.12109375 C5.73774442 11.19690631 5.33955925 14.17924646 2.875 17.5 C-0.37301889 20.32436425 -1.72194228 21.08556115 -6 21 C-9.81508113 19.83607694 -12.25702276 18.78941332 -15 15.875 C-16.44040105 11.73384698 -16.17090816 8.20426757 -15 4 C-10.99423127 -1.34102497 -6.2100782 -1.71562472 0 0 Z " fill="#010101" transform="translate(245,239)"/>
<path d="M0 0 C8.57142857 -0.28571429 8.57142857 -0.28571429 12 2 C12 3.98 12 5.96 12 8 C8.09971775 10.60018816 4.52565431 10.15085514 0 10 C-0.33 9.34 -0.66 8.68 -1 8 C-1.33 10.97 -1.66 13.94 -2 17 C-2.33 17 -2.66 17 -3 17 C-3 11.72 -3 6.44 -3 1 C-2.67 1.66 -2.34 2.32 -2 3 C-1.34 3 -0.68 3 0 3 C0 2.01 0 1.02 0 0 Z " fill="#171617" transform="translate(179,238)"/>
<path d="M0 0 C1.79133978 -0.05391993 3.58313899 -0.09275571 5.375 -0.125 C6.37273437 -0.14820313 7.37046875 -0.17140625 8.3984375 -0.1953125 C11 0 11 0 13 2 C13.25 4.5 13.25 4.5 13 7 C11 9 11 9 8.3984375 9.1953125 C7.40070313 9.17210937 6.40296875 9.14890625 5.375 9.125 C3.87066406 9.09792969 3.87066406 9.09792969 2.3359375 9.0703125 C1.56507813 9.04710937 0.79421875 9.02390625 0 9 C0 6.03 0 3.06 0 0 Z " fill="#060505" transform="translate(179,250)"/>
</svg>
